{"asset":{"version":"2.0","generator":"Unity 2021.3.26f1c1 glTFast 5.0.0"},"nodes":[{"name":"Renderer_Avatar","mesh":0},{"name":"Renderer_Avatar_Transparent","mesh":1},{"name":"HeadTop_End","translation":[9.65894E-15,0.181316376,-7.450581E-09],"rotation":[-0.0744652152,-4.79712661E-08,-1.79513062E-08,0.9972236]},{"name":"LeftEye","translation":[0.03412298,0.0873832,0.0659482],"rotation":[-0.07016064,-3.15971533E-08,-3.03562473E-08,0.9975357]},{"name":"RightEye","translation":[-0.0341228433,0.0873240754,0.06595651],"rotation":[-0.07016064,-3.15971533E-08,-3.03562473E-08,0.9975357]},{"name":"Head","children":[2,3,4],"translation":[-7.66649859E-14,0.09079493,2.54882178E-08],"rotation":[-0.0533616319,3.44274333E-08,1.24596227E-07,0.99857527]},{"name":"Neck","children":[5],"translation":[7.625724E-15,0.124441177,-5.06631253E-08],"rotation":[0.139646083,4.32787E-08,-1.1020046E-07,0.990201533]},{"name":"LeftHandThumb4","translation":[-5.467519E-07,0.03377926,-6.32859454E-08],"rotation":[-0.0327189676,0.0297100358,0.0431979969,0.998088539]},{"name":"LeftHandThumb3","children":[7],"translation":[-2.26111169E-07,0.0311691631,3.869054E-08],"rotation":[0.06517263,0.00260484032,-0.06588883,0.995692968]},{"name":"LeftHandThumb2","children":[8],"translation":[1.50830346E-07,0.0340792872,3.61350558E-08],"rotation":[0.0353580527,-0.0182987265,-0.2210381,0.974452257]},{"name":"LeftHandThumb1","children":[9],"translation":[-0.0166045744,0.01429879,0.01593314],"rotation":[0.17928575,0.00309066381,0.368181676,0.912299037]},{"name":"LeftHandIndex4","translation":[-1.28951811E-07,0.0255884081,-5.21491366E-08],"rotation":[-0.06403234,0.04265813,-0.0306939017,0.996563137]},{"name":"LeftHandIndex3","children":[11],"translation":[2.77924E-07,0.0283169542,2.700633E-08],"rotation":[0.133359954,-0.0465450734,-0.03151467,0.9894723]},{"name":"LeftHandIndex2","children":[12],"translation":[5.0478242E-08,0.0322205164,3.399723E-08],"rotation":[0.175997764,0.03318172,-0.0251123384,0.9835106]},{"name":"LeftHandIndex1","children":[13],"translation":[-0.0213004835,0.08553476,0.0146123525],"rotation":[0.101827033,-0.0131344879,0.07580758,0.9918226]},{"name":"LeftHandMiddle4","translation":[1.82624369E-08,0.0245851371,9.808742E-08],"rotation":[-0.0793354,0.00226776185,-0.0230238643,0.996579468]},{"name":"LeftHandMiddle3","children":[15],"translation":[1.49038257E-07,0.03219463,-1.507247E-07],"rotation":[0.145755947,-0.007176487,0.0101906583,0.9892421]},{"name":"LeftHandMiddle2","children":[16],"translation":[1.91670448E-08,0.03819375,-3.16489839E-08],"rotation":[0.15075244,0.02291626,0.0396506339,0.9875102]},{"name":"LeftHandMiddle1","children":[17],"translation":[-0.00484607834,0.0840625,0.0107323229],"rotation":[0.1042036,-0.000270302437,-0.0273408145,0.9941801]},{"name":"LeftHandRing4","translation":[2.06605151E-08,0.0212509222,3.43097284E-09],"rotation":[-0.0159834027,0.003182671,0.0205563065,0.9996559]},{"name":"LeftHandRing3","children":[19],"translation":[1.521751E-07,0.0283164848,3.84284782E-08],"rotation":[0.0310929436,-0.0130546782,-0.0188174155,0.999254167]},{"name":"LeftHandRing2","children":[20],"translation":[5.28367323E-08,0.0303797089,-1.24460925E-07],"rotation":[0.173395321,0.0194158535,0.0338994339,0.9840772]},{"name":"LeftHandRing1","children":[21],"translation":[0.0167709514,0.08656323,0.008757976],"rotation":[0.137930736,0.0234235022,-0.08379518,0.9866128]},{"name":"LeftHandPinky4","translation":[-4.48815243E-08,0.01338075,1.17641029E-07],"rotation":[-0.039422784,0.02194329,0.0104632294,0.9989269]},{"name":"LeftHandPinky3","children":[23],"translation":[4.065023E-08,0.0176561382,6.773759E-08],"rotation":[0.100023277,-0.03464675,-0.01231544,0.994305432]},{"name":"LeftHandPinky2","children":[24],"translation":[-2.35982949E-08,0.0276379213,1.0976E-07],"rotation":[0.0855747461,0.0339042135,0.07126494,0.9932014]},{"name":"LeftHandPinky1","children":[25],"translation":[0.032583382,0.0791476,0.005490522],"rotation":[0.196798623,0.0243268367,-0.1926426,0.9610241]},{"name":"LeftHand","children":[10,14,18,22,26],"translation":[-9.4429E-08,0.257376015,2.45135482E-07],"rotation":[0.0159763768,-0.120417573,-0.040059492,0.9917861]},{"name":"LeftForeArm","children":[27],"translation":[-7.590676E-08,0.268844068,-1.34908632E-07],"rotation":[0.0153860748,-0.009234624,0.237662658,0.971182]},{"name":"LeftArm","children":[28],"translation":[-1.50962753E-09,0.06534287,5.574939E-08],"rotation":[0.384801537,0.0691365,0.0382875949,0.919609666]},{"name":"LeftShoulder","children":[29],"translation":[0.0622233935,0.104911529,-0.012486673],"rotation":[0.481687784,0.4927694,-0.5889066,0.4223082]},{"name":"RightHandThumb4","translation":[9.659294E-07,0.0337793678,5.33183879E-08],"rotation":[-0.03271651,-0.0297026746,-0.0432054438,0.998088539]},{"name":"RightHandThumb3","children":[31],"translation":[5.999546E-08,0.0311693866,-8.64723049E-09],"rotation":[0.06517776,-0.00259893364,0.06589286,0.995692432]},{"name":"RightHandThumb2","children":[32],"translation":[-1.31475815E-07,0.0340787955,-4.83771743E-08],"rotation":[0.0353576355,0.0182915665,0.221040368,0.9744519]},{"name":"RightHandThumb1","children":[33],"translation":[0.0166047737,0.0142988479,0.0159330554],"rotation":[0.1792836,-0.003093177,-0.3681814,0.912299454]},{"name":"RightHandIndex4","translation":[1.52492248E-07,0.0255882982,-3.55762459E-08],"rotation":[-0.0640337244,-0.0426589474,0.0306884367,0.996563137]},{"name":"RightHandIndex3","children":[35],"translation":[-4.350573E-08,0.0283163544,4.440091E-09],"rotation":[0.133368537,0.0465581864,0.03151113,0.989470661]},{"name":"RightHandIndex2","children":[36],"translation":[-7.621133E-08,0.0322210267,-1.82391616E-07],"rotation":[0.175994158,-0.03318959,0.0251138955,0.983511]},{"name":"RightHandIndex1","children":[37],"translation":[0.02130053,0.08553474,0.014612223],"rotation":[0.101825491,0.0131317805,-0.0758066,0.991822839]},{"name":"RightHandMiddle4","translation":[-5.851855E-08,0.024584841,3.49923326E-08],"rotation":[-0.079336524,-0.00226921821,0.0230247751,0.996579349]},{"name":"RightHandMiddle3","children":[39],"translation":[-5.17727479E-08,0.0321936868,3.1412327E-08],"rotation":[0.145756692,0.007179031,-0.0101917917,0.989241958]},{"name":"RightHandMiddle2","children":[40],"translation":[-4.816538E-08,0.03819438,-3.448665E-08],"rotation":[0.150749534,-0.0229206365,-0.0396521538,0.9875105]},{"name":"RightHandMiddle1","children":[41],"translation":[0.004850742,0.08382304,0.010622818],"rotation":[0.104202025,0.0002689827,0.027341444,0.994180262]},{"name":"RightHandRing4","translation":[2.213295E-07,0.0212514177,7.763059E-08],"rotation":[-0.015972551,-0.00316860178,-0.0205598511,0.999656]},{"name":"RightHandRing3","children":[43],"translation":[-3.884804E-08,0.0283168014,-8.15845951E-08],"rotation":[0.0310847815,0.0130435778,0.018812513,0.9992546]},{"name":"RightHandRing2","children":[44],"translation":[9.042608E-09,0.0303794984,2.8818492E-09],"rotation":[0.173397943,-0.0194129534,-0.0338963,0.9840769]},{"name":"RightHandRing1","children":[45],"translation":[-0.0167135019,0.08634696,0.008879148],"rotation":[0.13792868,-0.02342523,0.0837957561,0.986613035]},{"name":"RightHandPinky4","translation":[-6.32796144E-08,0.0133815352,9.795339E-08],"rotation":[-0.03943122,-0.0219523963,-0.0104631111,0.998926342]},{"name":"RightHandPinky3","children":[47],"translation":[1.81186586E-08,0.017655937,1.02548675E-07],"rotation":[0.100032754,0.03465655,0.0123097384,0.9943043]},{"name":"RightHandPinky2","children":[48],"translation":[-1.95722123E-08,0.0276383944,-2.16718561E-07],"rotation":[0.08557191,-0.03390832,-0.07126088,0.9932017]},{"name":"RightHandPinky1","children":[49],"translation":[-0.0326050073,0.07897969,0.00553351128],"rotation":[0.1967963,-0.02432828,0.192643672,0.961024344]},{"name":"RightHand","children":[34,38,42,46,50],"translation":[-1.57250444E-08,0.257374972,-4.48182874E-07],"rotation":[0.0159776155,0.120419584,0.04005845,0.9917859]},{"name":"RightForeArm","children":[51],"translation":[-1.02958772E-07,0.26884377,-1.92832985E-08],"rotation":[0.0153852962,0.009234644,-0.237662673,0.971182048]},{"name":"RightArm","children":[52],"translation":[1.08916911E-08,0.06534293,2.27158665E-07],"rotation":[0.3848026,-0.06913662,-0.038287688,0.919609249]},{"name":"RightShoulder","children":[53],"translation":[-0.0622232668,0.104911305,-0.012486672],"rotation":[0.481687844,-0.492769837,0.58890605,0.4223084]},{"name":"Spine2","children":[6,30,54],"translation":[4.154517E-14,0.121621095,2.93416953E-08],"rotation":[0.0635920241,-1.51221826E-07,-8.902618E-08,0.997976]},{"name":"Spine1","children":[55],"translation":[-9.783378E-15,0.09147471,3.77569531E-09],"rotation":[-0.036356926,1.11342409E-07,9.74143E-08,0.999338865]},{"name":"Spine","children":[56],"translation":[2.9440003E-12,0.09636257,4.99599579E-08],"rotation":[-0.0137857627,2.62900812E-05,3.58636157E-07,0.999905]},{"name":"LeftToe_End","translation":[-4.36354668E-08,0.08319608,-7.693976E-09],"rotation":[0.0162598658,0.7088276,-0.024402244,0.704772]},{"name":"LeftToeBase","children":[58],"translation":[8.06190741E-08,0.156573445,9.679537E-10],"rotation":[0.330711573,-0.0103015741,0.0261299741,0.943313837],"scale":[1.00000024,0.99998796,1.00001192]},{"name":"LeftFoot","children":[59],"translation":[-4.6060407E-08,0.449560016,-3.64709263E-10],"rotation":[0.495074719,-0.0149592543,-0.0299097169,0.8682066]},{"name":"LeftLeg","children":[60],"translation":[-1.18969112E-09,0.447508454,9.198463E-09],"rotation":[-0.03768057,0.00034261882,-0.0009753409,0.999289334]},{"name":"LeftUpLeg","children":[61],"translation":[0.0954561755,-0.019579,0.00277966168],"rotation":[0.00190168992,0.05636619,-0.9978453,0.033527188],"scale":[0.999996,1.00000024,0.999989331]},{"name":"RightToe_End","translation":[-3.835899E-08,0.08319563,-3.88189259E-09],"rotation":[0.0162728876,-0.708910942,0.02442057,0.704687357]},{"name":"RightToeBase","children":[63],"translation":[-1.37324285E-08,0.156571582,-5.466095E-09],"rotation":[0.330718219,0.0103975348,-0.0261211619,0.9433107]},{"name":"RightFoot","children":[64],"translation":[-3.699663E-08,0.4495588,-5.08964471E-09],"rotation":[0.495077342,0.0149560254,0.0299103633,0.86820513]},{"name":"RightLeg","children":[65],"translation":[4.730924E-08,0.447508335,1.46688812E-08],"rotation":[-0.037682265,-0.00034330113,0.0009755768,0.9992893]},{"name":"RightUpLeg","children":[66],"translation":[-0.0954559743,-0.01957888,0.002789649],"rotation":[0.001959824,-0.0563645,0.9978452,0.03352915],"scale":[1.00000393,1.00000024,1.0000118]},{"name":"Hips","children":[57,62,67],"translation":[-3.87824538E-14,1.03696418,0.04042893],"rotation":[-0.0299777351,-2.613985E-05,7.83970336E-07,0.9995506]},{"name":"Armature","children":[68]},{"name":"61ea9e9c8826d06f9cf8c540","children":[0,1,69],"translation":[-15.2949419,0.4853854,12.8196287],"rotation":[0,0.498952031,0,0.86662966]},{"name":"Standing Point","translation":[-11,0.340868384,13.161],"rotation":[0,-0.8866075,0,0.462522566]},{"name":"Chat"},{"name":"Camera","translation":[-15.251,1.899,14.617],"rotation":[-0.0355354659,-0.9580601,0.136471525,-0.249466792]},{"name":"Content","translation":[-300,0.000610351563,0]},{"name":"Viewport","children":[74],"translation":[300,-100,0]},{"name":"Handle"},{"name":"Sliding Area","children":[76],"translation":[10,100,0]},{"name":"Scrollbar Vertical","children":[77],"translation":[-320,-100,0]},{"name":"Scroll View","children":[75,78]},{"name":"Message Area","children":[79],"translation":[0,50,0]},{"name":"Placeholder","translation":[0,14.5,0]},{"name":"Text","translation":[0,14.5,0]},{"name":"InputField","children":[81,82],"translation":[50,100,0]},{"name":"Text","translation":[20,15,0]},{"name":"Send Button","children":[84],"translation":[-250,100,0]},{"name":"Label","translation":[7.5,-15.5,0]},{"name":"Arrow","translation":[-285,-15,0]},{"name":"Item Background"},{"name":"Item Checkmark","translation":[281,0,0]},{"name":"Item Label","translation":[-5,-0.5,0]},{"name":"Item","children":[88,89,90],"translation":[0,-14,0]},{"name":"Content","children":[91],"translation":[-291,0,0]},{"name":"Viewport","children":[92],"translation":[300,0,0]},{"name":"Handle","translation":[0,-52,0]},{"name":"Sliding Area","children":[94],"translation":[10,-75,0]},{"name":"Scrollbar","children":[95],"translation":[-300,0,0]},{"name":"Template","children":[93,96],"translation":[0,-28,0]},{"name":"Dropdown (Legacy)","children":[86,87,97],"translation":[0,-10,0]},{"name":"Image","translation":[19.99997,20,0]},{"name":"Text","translation":[20,20,0]},{"name":"Rec Button","children":[99,100],"translation":[-300,95,0]},{"name":"Panel","children":[80,83,85,98,101],"translation":[0,-30,0]},{"name":"Canvas","children":[102],"scale":[0,0,0]},{"name":"ToActivate","children":[72,73,103]},{"name":"NPC Setup","children":[70,71,104],"translation":[0,-0.063,3.033]}],"buffers":[{"uri":"NPC Setup.bin","byteLength":836716}],"bufferViews":[{"buffer":0,"byteLength":166260},{"buffer":0,"byteLength":321640,"byteOffset":166260,"byteStride":40},{"buffer":0,"byteLength":64328,"byteOffset":487900,"byteStride":8},{"buffer":0,"byteLength":257312,"byteOffset":552228,"byteStride":32},{"buffer":0,"byteLength":2376,"byteOffset":809540},{"buffer":0,"byteLength":12400,"byteOffset":811916,"byteStride":40},{"buffer":0,"byteLength":2480,"byteOffset":824316,"byteStride":8},{"buffer":0,"byteLength":9920,"byteOffset":826796,"byteStride":32}],"accessors":[{"bufferView":1,"componentType":5126,"count":8041,"type":"VEC3","max":[0.511063,1,0.200323492],"min":[-0.511063,-0.950926244,-0.200323492]},{"bufferView":1,"componentType":5126,"count":8041,"type":"VEC3","byteOffset":12},{"bufferView":1,"componentType":5126,"count":8041,"type":"VEC4","byteOffset":24},{"bufferView":2,"componentType":5126,"count":8041,"type":"VEC2"},{"bufferView":3,"componentType":5126,"count":8041,"type":"VEC4"},{"bufferView":3,"componentType":5125,"count":8041,"type":"VEC4","byteOffset":16},{"bufferView":0,"componentType":5125,"count":41565,"type":"SCALAR"},{"bufferView":5,"componentType":5126,"count":310,"type":"VEC3","max":[1,0.33597827,0.9844966],"min":[-1,-0.33597827,-0.9844966]},{"bufferView":5,"componentType":5126,"count":310,"type":"VEC3","byteOffset":12},{"bufferView":5,"componentType":5126,"count":310,"type":"VEC4","byteOffset":24},{"bufferView":6,"componentType":5126,"count":310,"type":"VEC2"},{"bufferView":7,"componentType":5126,"count":310,"type":"VEC4"},{"bufferView":7,"componentType":5125,"count":310,"type":"VEC4","byteOffset":16},{"bufferView":4,"componentType":5125,"count":594,"type":"SCALAR"}],"materials":[{"name":"Wolf3D_Avatar","pbrMetallicRoughness":{"metallicFactor":0}},{"name":"Wolf3D_Avatar_Transparent","pbrMetallicRoughness":{"metallicFactor":0},"alphaMode":"BLEND"}],"meshes":[{"name":"Wolf3D_Avatar","primitives":[{"attributes":{"POSITION":0,"NORMAL":1,"TANGENT":2,"TEXCOORD_0":3,"JOINTS_0":5,"WEIGHTS_0":4},"indices":6,"material":0}]},{"name":"Wolf3D_Avatar_Transparent","primitives":[{"attributes":{"POSITION":7,"NORMAL":8,"TANGENT":9,"TEXCOORD_0":10,"JOINTS_0":12,"WEIGHTS_0":11},"indices":13,"material":1}]}],"scene":0,"scenes":[{"name":"NPC Setup","nodes":[105]}]}